<svg id="Layer_1" data-name="Layer 1" xmlns="http://www.w3.org/2000/svg" viewBox="0 0 674.93 644.05"><path d="M740.64,627.76l57.2,159.79c-1.16.11-2.06.26-3,.26-9.91,0-19.82-.07-29.72.07-2.38,0-3.33-.84-4.08-3q-30.36-85.18-60.81-170.33c-1.87-5.23-1.63-5.88,3.5-7.82,20.7-7.83,40.41-17.54,58.13-30.94,25.71-19.45,45.69-43.94,61.59-71.76,6.79-11.89,12.37-24.47,18.46-36.76.8-1.62,1.54-3.4-.75-4.64-4.92,7.64-9.62,15.37-14.74,22.8-23.59,34.22-52.85,62.25-89.86,81.72-26.45,13.92-54.64,22.3-84.16,26.52C634.37,596.3,616.21,597,598,597q-72.4-.09-144.8,0a11.62,11.62,0,0,1-3.18-.06c-1.4-.43-3.44-1-3.8-2s.44-3.12,1.39-4.13c6.59-7,13.34-13.77,20-20.62q8.94-9.13,17.89-18.26c.49-.5.89-1.09,1.63-2-4.74-.34-9-.55-13.33-1-23.63-2.27-44.54-10.8-61.81-27.39-12.7-12.21-21.32-27-26.62-43.72-1.37-4.34-.3-5.47,4.79-5.47H563.11a60.82,60.82,0,0,0,40.23-14.61q79.13-66.28,158.36-132.43c16.29-13.52,33.23-26.3,50.19-39,19.56-14.64,41.74-22.56,66.13-24.54,23.49-1.91,45.57,2.28,65.94,14.33,12.16,7.19,22.67,16.21,30.25,28.36a4.92,4.92,0,0,0,3.64,1.6c17.15.1,34.3.07,51.46.07a5.61,5.61,0,0,1,2.21.05c1.41.66,3.73,1.51,3.8,2.42a5.22,5.22,0,0,1-2.33,4.14c-6.34,3.24-12.87,6.1-19.34,9.08-9.95,4.58-19.87,9.24-29.89,13.68a5.64,5.64,0,0,0-3.64,4.94,723.5,723.5,0,0,1-28.36,118c-8.37,25.18-18.53,49.6-31.55,72.79-24,42.74-60.31,70-106.56,84.66a237.54,237.54,0,0,1-69.71,11.11c-.75,0-1.49.06-2.23.13C741.52,627.2,741.35,627.37,740.64,627.76ZM925.35,325c-1.83,10.73-7.35,16.18-16.06,16.23-7.94,0-14.64-5.31-15.85-13a15.91,15.91,0,0,1,3.91-13.64c3.5-3.93,8.2-5.12,13.79-5.42-11.1-6.34-26.18-2.85-34.45,7.45a28.5,28.5,0,0,0,37.93,41.59C925.63,350.94,930.52,336.11,925.35,325Z" transform="translate(-377.35 -143.85)"/><path d="M495.06,445.06c4.93-11.76,9.71-23.22,14.53-34.68q56-133.23,118.43-263.61c1-2.12,2.16-2.93,4.55-2.92q83.73.1,167.46,0c2,0,3.29.4,4.23,2.42q21.06,45.61,42.27,91.16c.26.57.46,1.17.83,2.13-2.69.89-5.27,1.7-7.83,2.58-20.16,6.94-38.06,18-54.89,30.78-13.14,10-25.92,20.44-38.85,30.69-.83.66-1.65,1.33-2.81,2.27-8.67-20.8-17.27-41.4-26.23-62.9-1,2.08-1.56,3.17-2.07,4.28C696.46,287,681.38,328.05,666.21,369a12.51,12.51,0,0,1-3.54,5.06q-38.13,31.57-76.4,63a35.83,35.83,0,0,1-23,8.08c-22.36.27-44.73.12-67.1.12A6.93,6.93,0,0,1,495.06,445.06Z" transform="translate(-377.35 -143.85)"/><path d="M844.61,633.07Q921,600.19,954.36,523.59c34.63,87.41,68,174.9,97.92,264-1.27.09-2.19.21-3.11.21q-73.34,0-146.66.05c-2.24,0-3.37-.57-4.17-2.81q-26.62-75.13-53.4-150.21C844.84,634.55,844.82,634.22,844.61,633.07Z" transform="translate(-377.35 -143.85)"/><path d="M377.35,787.82c2.19-6.79,4.08-13.07,6.23-19.26Q408,698,432.46,627.53c.89-2.56,2-3.57,4.92-3.56q71.6.16,143.19.08h3.87c-2.6,8.15-5,15.81-7.49,23.46q-21.9,68.5-43.76,137c-.75,2.37-1.68,3.36-4.37,3.36q-74-.15-148-.07Z" transform="translate(-377.35 -143.85)"/><path d="M866.49,787.82h-12c-6.81,0-13.63-.15-20.44.07-2.64.09-3.69-.86-4.52-3.22q-17.58-49.57-35.3-99.1c-4.07-11.39-8.13-22.78-12.23-34.29l33.31-6.5C832.3,692.18,849.27,739.66,866.49,787.82Z" transform="translate(-377.35 -143.85)"/></svg>